<?xml version="1.0" encoding="utf-8"?>
<!-- Generator: Adobe Illustrator 28.5.0, SVG Export Plug-In . SVG Version: 9.03 Build 54727)  -->
<svg version="1.1" id="Camada_1" xmlns="http://www.w3.org/2000/svg" xmlns:xlink="http://www.w3.org/1999/xlink" x="0px" y="0px"
	 viewBox="0 0 540.79 174.36" style="enable-background:new 0 0 540.79 174.36;" xml:space="preserve">
<style type="text/css">
	.st0{fill:#0F2A3B;}
	.st1{fill:#1EC8A2;}
	.st2{fill:#FFFFFF;}
	.st3{font-family:'Poppins-Black';}
	.st4{font-size:107.5809px;}
	.st5{letter-spacing:17;}
	.st6{fill:#112B3C;}
	.st7{letter-spacing:6;}
	.st8{font-family:'Poppins-Thin';}
	.st9{font-size:39.4463px;}
	.st10{letter-spacing:9;}
</style>
<path class="st0" d="M101.37,142.19H6.1c-1.81,0-3.28-1.47-3.28-3.28V5.49c0-1.81,1.47-3.28,3.28-3.28h95.27
	c1.81,0,3.28,1.47,3.28,3.28v133.41C104.65,140.72,103.18,142.19,101.37,142.19z"/>
<path class="st1" d="M119.92,160.61H24.65c-1.81,0-3.28-1.47-3.28-3.28V23.91c0-1.81,1.47-3.28,3.28-3.28h95.27
	c1.81,0,3.28,1.47,3.28,3.28v133.41C123.21,159.14,121.74,160.61,119.92,160.61z"/>
<text transform="matrix(1 0 0 1 35.9196 125.0033)"><tspan x="0" y="0" class="st2 st3 st4 st5">B</tspan><tspan x="90.8" y="0" class="st6 st3 st4 st7">riefing</tspan></text>
<g>
	<text transform="matrix(1 0 0 1 130.0553 160.7855)" class="st6 st8 st9 st10">art e design</text>
</g>
</svg>
