<?xml version="1.0" encoding="utf-8"?>
<!-- Generator: Adobe Illustrator 27.0.1, SVG Export Plug-In . SVG Version: 6.00 Build 0)  -->
<svg version="1.1" id="Layer_1" xmlns="http://www.w3.org/2000/svg" xmlns:xlink="http://www.w3.org/1999/xlink" x="0px" y="0px"
	 viewBox="0 0 534.89 171.8" style="enable-background:new 0 0 534.89 171.8;" xml:space="preserve">
<style type="text/css">
	.st0{fill:#0F2A3B;}
	.st1{fill:#1EC8A2;}
	.st2{fill:#FFFFFF;}
	.st3{font-family:'Poppins-Black';}
	.st4{font-size:107.5809px;}
	.st5{letter-spacing:16;}
	.st6{fill:#112B3C;}
	.st7{letter-spacing:5;}
	.st8{font-family:'Poppins-Thin';}
	.st9{font-size:39.4463px;}
	.st10{letter-spacing:8;}
</style>
<path class="st0" d="M101.22,142.02H5.95c-1.81,0-3.28-1.47-3.28-3.28V5.32c0-1.81,1.47-3.28,3.28-3.28h95.27
	c1.81,0,3.28,1.47,3.28,3.28v133.41C104.51,140.55,103.04,142.02,101.22,142.02z"/>
<path class="st1" d="M119.78,160.43H24.51c-1.81,0-3.28-1.47-3.28-3.28V23.74c0-1.81,1.47-3.28,3.28-3.28h95.27
	c1.81,0,3.28,1.47,3.28,3.28v133.41C123.06,158.96,121.59,160.43,119.78,160.43z"/>
<text transform="matrix(1 0 0 1 35.7724 124.8274)" class="st2 st3 st4 st5">B</text>
<text transform="matrix(1 0 0 1 126.5724 124.8274)" class="st6 st3 st4 st7">riefing</text>
<g>
	<text transform="matrix(1 0 0 1 129.9081 160.6096)" class="st6 st8 st9 st10">art e design</text>
</g>
</svg>
